<svg width="164" height="164" viewBox="0 0 164 164" fill="none" xmlns="http://www.w3.org/2000/svg">
<path d="M159.823 66.1758H152.059V97.2838H159.823V66.1758Z" fill="#252525"/>
<path d="M50.8658 66.1761H58.63V58.3608H66.4454V50.5966H97.5534V58.3608H105.369V50.5966H128.713V58.3608H136.477V120.628H144.292V105.099H152.057V97.2841H144.292V66.1761H152.057V58.3608H144.292V27.2528H136.477V35.017H128.713V27.2528H113.133V19.4375H58.63V27.2528H50.8658V35.017H43.1016V50.5966H35.2863V27.2528H27.522V50.5966H19.7578V58.3608H50.8658V66.1761Z" fill="#252525"/>
<path d="M136.479 120.625H128.715V128.441H136.479V120.625Z" fill="#252525"/>
<path d="M136.479 19.4375H128.715V27.2528H136.479V19.4375Z" fill="#252525"/>
<path d="M128.714 105.098H120.898V112.863H128.714V105.098Z" fill="#252525"/>
<path d="M128.714 81.7031H120.898V97.2827H128.714V81.7031Z" fill="#252525"/>
<path d="M128.714 11.6719H120.898V19.4362H128.714V11.6719Z" fill="#252525"/>
<path d="M58.6315 128.441V144.046H43.103V151.81H27.5234V159.574H152.058V151.81H136.479V144.046H120.899V136.231H128.714V128.466L58.6315 128.441ZM113.135 151.785H82.0263V144.046H66.4468V136.231H113.16L113.135 151.785Z" fill="#252525"/>
<path d="M120.896 112.863H97.5527V120.627H120.896V112.863Z" fill="#252525"/>
<path d="M97.5533 105.098H89.7891V112.863H97.5533V105.098Z" fill="#252525"/>
<path d="M89.7915 81.7031H82.0273V97.2827H89.7915V81.7031Z" fill="#252525"/>
<path d="M97.5558 58.3594H82.0273V66.1748H97.5558V58.3594Z" fill="#252525"/>
<path d="M120.887 58.3594H105.359V66.1748H120.887V58.3594Z" fill="#252525"/>
<path d="M66.4481 66.1758H58.6328V97.2838H66.4481V66.1758Z" fill="#252525"/>
<path d="M120.898 3.90625H50.8672V11.6704H120.898V3.90625Z" fill="#252525"/>
<path d="M58.6315 120.625H50.8672V128.441H58.6315V120.625Z" fill="#252525"/>
<path d="M58.6315 97.2812H50.8672V105.096H58.6315V97.2812Z" fill="#252525"/>
<path d="M19.7578 105.098V112.863H43.1016V120.627H50.8658V105.098H19.7578Z" fill="#252525"/>
<path d="M50.8677 11.6719H43.1035V19.4362H50.8677V11.6719Z" fill="#252525"/>
<path d="M43.1024 19.4375H35.2871V27.2528H43.1024V19.4375Z" fill="#252525"/>
<path d="M35.2877 66.1758H27.5234V73.94H35.2877V66.1758Z" fill="#252525"/>
<path d="M27.522 73.9375H19.7578V89.517H27.522V73.9375Z" fill="#252525"/>
<path d="M19.7588 97.2812H11.9434V105.096H19.7588V97.2812Z" fill="#252525"/>
<path d="M19.7588 58.3594H11.9434V66.1748H19.7588V58.3594Z" fill="#252525"/>
<path d="M11.944 66.1758H4.17969V97.2838H11.944V66.1758Z" fill="#252525"/>
</svg>
