<svg width="165" height="164" viewBox="0 0 165 164" fill="none" xmlns="http://www.w3.org/2000/svg">
<path d="M160.323 66.1758H152.559V97.2838H160.323V66.1758Z" fill="#252525"/>
<path d="M51.3658 66.1761H59.13V58.3608H66.9454V50.5966H98.0534V58.3608H105.869V50.5966H129.213V58.3608H136.977V120.628H144.792V105.099H152.557V97.2841H144.792V66.1761H152.557V58.3608H144.792V27.2528H136.977V35.017H129.213V27.2528H113.633V19.4375H59.13V27.2528H51.3658V35.017H43.6016V50.5966H35.7863V27.2528H28.022V50.5966H20.2578V58.3608H51.3658V66.1761Z" fill="#252525"/>
<path d="M136.979 120.625H129.215V128.441H136.979V120.625Z" fill="#252525"/>
<path d="M136.979 19.4375H129.215V27.2528H136.979V19.4375Z" fill="#252525"/>
<path d="M129.214 105.098H121.398V112.863H129.214V105.098Z" fill="#252525"/>
<path d="M129.214 81.7031H121.398V97.2827H129.214V81.7031Z" fill="#252525"/>
<path d="M129.214 11.6719H121.398V19.4362H129.214V11.6719Z" fill="#252525"/>
<path d="M59.1315 128.441V144.046H43.603V151.81H28.0234V159.574H152.558V151.81H136.979V144.046H121.399V136.231H129.214V128.466L59.1315 128.441ZM113.635 151.785H82.5263V144.046H66.9468V136.231H113.66L113.635 151.785Z" fill="#252525"/>
<path d="M121.396 112.863H98.0527V120.627H121.396V112.863Z" fill="#252525"/>
<path d="M98.0533 105.098H90.2891V112.863H98.0533V105.098Z" fill="#252525"/>
<path d="M90.2915 81.7031H82.5273V97.2827H90.2915V81.7031Z" fill="#252525"/>
<path d="M98.0558 58.3594H82.5273V66.1748H98.0558V58.3594Z" fill="#252525"/>
<path d="M121.387 58.3594H105.859V66.1748H121.387V58.3594Z" fill="#252525"/>
<path d="M66.9481 66.1758H59.1328V97.2838H66.9481V66.1758Z" fill="#252525"/>
<path d="M121.398 3.90625H51.3672V11.6704H121.398V3.90625Z" fill="#252525"/>
<path d="M59.1315 120.625H51.3672V128.441H59.1315V120.625Z" fill="#252525"/>
<path d="M59.1315 97.2812H51.3672V105.096H59.1315V97.2812Z" fill="#252525"/>
<path d="M20.2578 105.098V112.863H43.6016V120.627H51.3658V105.098H20.2578Z" fill="#252525"/>
<path d="M51.3677 11.6719H43.6035V19.4362H51.3677V11.6719Z" fill="#252525"/>
<path d="M43.6024 19.4375H35.7871V27.2528H43.6024V19.4375Z" fill="#252525"/>
<path d="M35.7877 66.1758H28.0234V73.94H35.7877V66.1758Z" fill="#252525"/>
<path d="M28.022 73.9375H20.2578V89.517H28.022V73.9375Z" fill="#252525"/>
<path d="M20.2588 97.2812H12.4434V105.096H20.2588V97.2812Z" fill="#252525"/>
<path d="M20.2588 58.3594H12.4434V66.1748H20.2588V58.3594Z" fill="#252525"/>
<path d="M12.444 66.1758H4.67969V97.2838H12.444V66.1758Z" fill="#252525"/>
</svg>
